[img]http://img577.imageshack.us/img577/1167/devilr.jpg[/img]
[code]
The Devils Double 2011 CAM v2 READNFO XViD - IMAGiNE

Ripper ...........: IMAGiNE                                        IMDB Rating.......:6.8/10                             
Video Codec.......: XVID                                         Release Date......:16/08/11
Audio Codec.......:MP3                                           Theatre Date......:10/08/11
Audio Bitrate.....:128                                              Runtime.......:1h 44mn
Subtitles.........:NIL                                                 Language..........:ENGLISH
Resolution...... 720 x 384                                      IMDb URL.......... http://www.imdb.com/title/tt1270262/

DETAILS:

Video
ID                               : 0
Format                           : MPEG-4 Visual
Format profile                   : Advanced Simple@L5
Format settings, BVOP            : 2
Format settings, QPel            : No
Format settings, GMC             : No warppoints
Format settings, Matrix          : Default (MPEG)
Muxing mode                      : Packed bitstream
Codec ID                         : XVID
Codec ID/Hint                    : XviD
Duration                         : 1h 44mn
Bit rate                         : 1 632 Kbps
Width                            : 720 pixels
Height                           : 384 pixels
Display aspect ratio             : 1.875
Frame rate                       : 25.000 fps
Color space                      : YUV
Chroma subsampling               : 4:2:0
Bit depth                        : 8 bits
Scan type                        : Progressive
Compression mode                 : Lossy
Bits/(Pixel*Frame)               : 0.236
Stream size                      : 1.19 GiB (92%)
Writing library                  : XviD 64

Audio
ID                               : 1
Format                           : MPEG Audio
Format version                   : Version 1
Format profile                   : Layer 3
Codec ID                         : 55
Codec ID/Hint                    : MP3
Duration                         : 1h 44mn
Bit rate mode                    : Constant
Bit rate                         : 128 Kbps
Channel(s)                       : 2 channels
Sampling rate                    : 44.1 KHz
Compression mode                 : Lossy
Delay relative to video          : 11ms
Stream size                      : 95.7 MiB (7%)
Alignment                        : Split accross interleaves
Interleave, duration             : 40 ms (1.00 video frame)

Plot:
A chilling vision of the House of Saddam Hussein comes to life through the eyes of the man who was forced to become the double of Hussein's sadistic son.

SOURCES:
VIDEO: ......... KiKTEAM Thanks Mate 
AUDIO: ......... KiKTEAM

NOTES:
IMAGiNE bringing you another release..........
The Devils Double V2.......
Ok now for this we made a script to crop resize and sharpen......
Then we had to rotate and yada yada....
The video has russian subs throughout but the audio is nice and will do for now Enjoy Folks!
[/code]
Screens:
[img]http://img542.imageshack.us/img542/5305/75483760.png[/img]
[img]http://img823.imageshack.us/img823/34/69139090.png[/img]
[img]http://img14.imageshack.us/img14/5919/31119589.png[/img]
[img]http://img834.imageshack.us/img834/7005/81475628.png[/img]